<svg xmlns="http://www.w3.org/2000/svg" xmlns:xlink="http://www.w3.org/1999/xlink" width="284.972" height="161.714" viewBox="0 0 284.972 161.714">
  <defs>
    <radialGradient id="radial-gradient" cx="0.5" cy="0.5" r="0.781" gradientTransform="translate(0.246) scale(0.508 1)" gradientUnits="objectBoundingBox">
      <stop offset="0.093" stop-color="#ea590c"/>
      <stop offset="1" stop-color="#e10814"/>
    </radialGradient>
    <linearGradient id="linear-gradient" x1="0.5" y1="0.025" x2="0.5" y2="1.023" gradientUnits="objectBoundingBox">
      <stop offset="0" stop-color="#31a9e1"/>
      <stop offset="1" stop-color="#6cc8ec"/>
    </linearGradient>
  </defs>
  <g id="logo_asma_pharm" data-name="logo asma pharm" transform="translate(-41.152 -27.96)">
    <g id="Group_110440" data-name="Group 110440" transform="translate(41.152 27.96)">
      <g id="Group_110435" data-name="Group 110435" transform="translate(0 0.419)">
        <path id="Path_392710" data-name="Path 392710" d="M62.046,60.262a1.849,1.849,0,0,1,1.657-.985A1.813,1.813,0,0,1,65.31,60.34l6.119,13.475H87.6a1.81,1.81,0,0,1,1.506.806l1.568,2.351L92.16,74.65a1.806,1.806,0,0,1,1.528-.834h3.118l7.11-20.042a1.81,1.81,0,0,1,3.482.246l5.822,29.106,6.41-24.062a1.812,1.812,0,0,1,3.477-.084l6.013,18.883,3.667-5.833a1.813,1.813,0,0,1,1.534-.845H147.78a41.56,41.56,0,0,0-4.361-25.848c-5.453-10.161-14.567-16.532-23.793-16.627h-.218c-6.6,0-16.006,3.051-24.678,16.924-8.773-14.024-18.29-16.98-24.9-16.924-9.226.1-18.346,6.466-23.793,16.622A41.3,41.3,0,0,0,42.2,73.815H55.1Z" transform="translate(-41.16 -28.709)" fill="url(#radial-gradient)"/>
        <path id="Path_392711" data-name="Path 392711" d="M131.73,108.629a1.8,1.8,0,0,1-1.763.834,1.823,1.823,0,0,1-1.5-1.248L123.148,91.52,116.329,117.1a1.81,1.81,0,0,1-1.752,1.344h-.056a1.809,1.809,0,0,1-1.719-1.456L106.744,86.7,101.4,101.76a1.812,1.812,0,0,1-1.708,1.2h-3.4l-2.441,3.824a1.811,1.811,0,0,1-1.512.834,1.793,1.793,0,0,1-1.523-.806l-2.57-3.852H71.878a1.814,1.814,0,0,1-1.652-1.064l-5.05-11.124-5.75,11.208a1.813,1.813,0,0,1-1.612.985H44.86a39.011,39.011,0,0,0,4.21,8.621c8.677,13.369,23.883,25.243,46.478,36.3l.795.392.795-.392c22.6-11.057,37.8-22.931,46.478-36.3a38.739,38.739,0,0,0,5.01-11.253H136.936Z" transform="translate(-42.784 -54.234)" fill="url(#linear-gradient)"/>
        <path id="Path_392712" data-name="Path 392712" d="M95.548,159.753l.795.392.314-.151c-.7-.386-1.388-.789-2.06-1.215-6.612-4.193-12-10.038-17.053-16.023C72,136.195,66.733,129.32,62.876,121.644q-.89-1.763-1.68-3.611c-.616-1.433-1.176-2.9-1.674-4.383l-.1.2a1.812,1.812,0,0,1-1.612.985H44.86a39.01,39.01,0,0,0,4.21,8.622C57.747,136.822,72.953,148.7,95.548,159.753Z" transform="translate(-42.784 -66.097)" fill="#fff" opacity="0.3"/>
        <path id="Path_392713" data-name="Path 392713" d="M42.181,73.826h12.9l1.377-2.682a38.408,38.408,0,0,1-.829-12.58C56.894,47,64.267,36.082,73.526,29.285c.106-.078.213-.151.319-.224a21.7,21.7,0,0,0-3.768-.341c-9.338.112-18.547,6.533-24.034,16.767a42.117,42.117,0,0,0-4.837,17.489.272.272,0,0,1-.006.067c-.022.4-.034.795-.045,1.192A39.489,39.489,0,0,0,42.181,73.826Z" transform="translate(-41.152 -28.714)" fill="#fff" opacity="0.3"/>
      </g>
      <g id="Group_110436" data-name="Group 110436" transform="translate(100.534 35.393)">
        <path id="Path_392714" data-name="Path 392714" d="M265.427,139.522H239.16l-5.011,13.184H220.73L245.945,91.18h12.932l25.3,61.526H270.438Zm-4.12-10.81-8.974-23.558-8.974,23.558Z" transform="translate(-220.73 -91.18)" fill="#e30613"/>
        <path id="Path_392715" data-name="Path 392715" d="M380.648,152.706l-10.911-17.137H357.689v17.137H344.6V91.18h24.487a29.233,29.233,0,0,1,13.056,2.726,19.906,19.906,0,0,1,8.526,7.737,22.728,22.728,0,0,1,2.99,11.863,22.27,22.27,0,0,1-3.029,11.824,19.637,19.637,0,0,1-8.61,7.6l12.691,19.773Zm-3.314-47.155q-3.073-2.771-8.974-2.771h-10.67v21.447h10.67q5.9,0,8.974-2.81t3.073-7.911Q380.407,108.317,377.334,105.551Z" transform="translate(-275.253 -91.18)" fill="#e30613"/>
        <path id="Path_392716" data-name="Path 392716" d="M499.857,126.293a16.337,16.337,0,0,1,2.749,9.624q0,8.087-5.777,12.44t-16.851,4.35H450.72V91.18h27.645q10.346,0,15.883,4.305a14.029,14.029,0,0,1,5.537,11.689,16.012,16.012,0,0,1-1.982,8,14.414,14.414,0,0,1-5.537,5.537A14.93,14.93,0,0,1,499.857,126.293ZM463.731,101.9v14.5h13.011c3.236,0,5.682-.616,7.356-1.847a6.344,6.344,0,0,0,2.508-5.447A6.224,6.224,0,0,0,484.1,103.7q-2.5-1.8-7.356-1.8H463.731Zm23.077,38.237a6.5,6.5,0,0,0,2.625-5.716q0-7.65-10.424-7.647H463.731V141.98h15.278Q484.173,141.98,486.807,140.138Z" transform="translate(-321.963 -91.18)" fill="#e30613"/>
      </g>
      <g id="Group_110438" data-name="Group 110438" transform="translate(118.309)">
        <g id="Group_110437" data-name="Group 110437">
          <path id="Path_392717" data-name="Path 392717" d="M270.893,51.791v4.8H252.48V30.73h17.971v4.8h-12.5v5.615h11.04v4.658H257.95v5.985Z" transform="translate(-252.48 -29.179)" fill="#36a9e1"/>
          <path id="Path_392718" data-name="Path 392718" d="M310.624,41.42V61.3H305.6V58.937a7.035,7.035,0,0,1-2.514,1.976,8.1,8.1,0,0,1-8.868-1.573q-2.108-2.251-2.1-6.69V41.42h5.3V51.8q0,4.8,3.7,4.8a3.811,3.811,0,0,0,3.057-1.349,6.008,6.008,0,0,0,1.153-4.008V41.42Z" transform="translate(-269.924 -33.885)" fill="#36a9e1"/>
          <path id="Path_392719" data-name="Path 392719" d="M341.605,41.639a8.855,8.855,0,0,1,3.723-.739v5.318c-.588-.05-.985-.073-1.187-.073a4.627,4.627,0,0,0-3.566,1.383,5.891,5.891,0,0,0-1.293,4.154v9.383h-5.3V41.191h5.061v2.626A5.972,5.972,0,0,1,341.605,41.639Z" transform="translate(-288.353 -33.656)" fill="#36a9e1"/>
          <path id="Path_392720" data-name="Path 392720" d="M359.89,27.96h5.3V55.375h-5.3Z" transform="translate(-299.758 -27.96)" fill="#36a9e1"/>
        </g>
      </g>
      <g id="Group_110439" data-name="Group 110439" transform="translate(12.998 95.799)">
        <path id="Path_392721" data-name="Path 392721" d="M101.913,208.4a19.907,19.907,0,0,1,8.526,7.737,24.954,24.954,0,0,1,0,23.687,19.566,19.566,0,0,1-8.526,7.737,29.681,29.681,0,0,1-13.055,2.682H77.465v16.963H64.37V205.68H88.863A29.191,29.191,0,0,1,101.913,208.4ZM97.1,235.866q3.074-2.771,3.074-7.866,0-5.181-3.074-7.955t-8.974-2.771H77.465v21.358H88.135Q94.03,238.64,97.1,235.866Z" transform="translate(-64.37 -201.985)" fill="#36a9e1"/>
        <path id="Path_392722" data-name="Path 392722" d="M207.954,221.58q4.971,5.274,4.971,15.647V264.3H200.318V239.338q0-5.626-2.262-8.392a7.964,7.964,0,0,0-6.545-2.771,9.62,9.62,0,0,0-7.6,3.208q-2.83,3.208-2.827,9.534V264.3H168.48V199.08h12.607v22.853a16.684,16.684,0,0,1,6.063-4.176,20.3,20.3,0,0,1,7.759-1.45Q202.971,216.306,207.954,221.58Z" transform="translate(-110.195 -199.08)" fill="#36a9e1"/>
        <path id="Path_392723" data-name="Path 392723" d="M299.056,235.07q5.417,5.232,5.414,15.776V277.83h-11.8v-5.889q-3.561,6.592-13.257,6.589a19.135,19.135,0,0,1-8.689-1.848,13.271,13.271,0,0,1-5.615-5.1,14.131,14.131,0,0,1-1.937-7.384,12.748,12.748,0,0,1,4.568-10.374q4.568-3.779,14.1-3.779h10.021q0-4.484-2.508-6.9t-7.519-2.419a20.372,20.372,0,0,0-6.83,1.187,17.514,17.514,0,0,0-5.7,3.208l-4.523-9.579a26.476,26.476,0,0,1,8.526-4.221,35.322,35.322,0,0,1,10.223-1.495Q293.642,229.847,299.056,235.07Zm-10.749,32.61a8.782,8.782,0,0,0,3.555-4.792v-4.831h-8.65q-7.759,0-7.759,5.537a5.091,5.091,0,0,0,1.9,4.176,8.053,8.053,0,0,0,5.212,1.539A10.35,10.35,0,0,0,288.307,267.681Z" transform="translate(-151.874 -212.615)" fill="#36a9e1"/>
        <path id="Path_392724" data-name="Path 392724" d="M375.444,231.608a21.078,21.078,0,0,1,8.851-1.758v12.658c-1.4-.118-2.346-.174-2.827-.174q-5.417,0-8.487,3.3t-3.073,9.887v22.326H357.3V230.561h12.042V236.8A14.2,14.2,0,0,1,375.444,231.608Z" transform="translate(-193.307 -212.624)" fill="#36a9e1"/>
        <path id="Path_392725" data-name="Path 392725" d="M487.6,235.066q4.812,5.232,4.809,15.687v27.074H479.805V252.863q0-5.626-2.144-8.392a7.262,7.262,0,0,0-6.1-2.771,8.661,8.661,0,0,0-7.032,3.118q-2.586,3.124-2.586,9.271V277.82H449.333V252.857q0-11.16-8.246-11.163a8.573,8.573,0,0,0-6.953,3.118q-2.587,3.124-2.586,9.271v23.732H418.94V230.531h12.042v5.447a15.961,15.961,0,0,1,5.94-4.568,18.632,18.632,0,0,1,7.72-1.584,17.476,17.476,0,0,1,8.325,1.976,15.169,15.169,0,0,1,5.979,5.755,18.148,18.148,0,0,1,6.746-5.716,19.823,19.823,0,0,1,8.929-2.021Q482.8,229.845,487.6,235.066Z" transform="translate(-220.439 -212.611)" fill="#36a9e1"/>
      </g>
    </g>
  </g>
</svg>
