<svg xmlns="http://www.w3.org/2000/svg" width="30.932" height="32.753" viewBox="0 0 30.932 32.753">
  <path id="Icon_awesome-arrow-alt-circle-down" data-name="Icon awesome-arrow-alt-circle-down" d="M31.495,16.939c0,9.047-6.922,16.376-15.466,16.376S.563,25.985.563,16.939,7.485.563,16.029.563,31.495,7.892,31.495,16.939Zm-18.21-7.66v7.66H8.863a.8.8,0,0,0-.53,1.354L15.5,25.84a.713.713,0,0,0,1.054,0l7.166-7.548a.8.8,0,0,0-.53-1.354H18.773V9.279a.774.774,0,0,0-.748-.792H14.033A.774.774,0,0,0,13.285,9.279Z" transform="translate(-0.563 -0.563)"/>
</svg>
