<?xml version="1.0" encoding="UTF-8"?><svg xmlns="http://www.w3.org/2000/svg" viewBox="0 0 128 128"><defs><style>.d{fill:#52595e;opacity:.4;}.e,.f,.g{fill:none;}.e,.h{stroke:#21272e;}.e,.h,.g{stroke-linecap:round;stroke-linejoin:round;stroke-width:4px;}.i{fill:#42484c;}.h,.j{fill:#545b60;}.k{fill:#4a5156;}.g{opacity:.2;stroke:#5e666d;}</style></defs><g id="a"/><g id="b"><g id="c"><g><g><path class="g" d="M34.44,118.44c4.86,2.66,10.1,4.66,15.56,5.94"/><path class="g" d="M58,125.7c1.98,.2,3.98,.3,6,.3,10.5,0,20.64-2.7,29.56-7.56"/><path class="g" d="M93.56,9.56c-4.86-2.66-10.1-4.66-15.56-5.94"/><path class="g" d="M70,2.3c-1.98-.2-3.98-.3-6-.3-10.5,0-20.64,2.7-29.56,7.56"/></g><circle class="d" cx="64" cy="64" r="50"/><path class="j" d="M84,92H10c-4.42,0-8-3.58-8-8v-2H76v2c0,4.42,3.58,8,8,8Z"/><path class="i" d="M102,82v2c0,4.42-3.58,8-8,8h-10c-4.42,0-8-3.58-8-8v-2h26Z"/><path class="e" d="M84,92H10c-4.42,0-8-3.58-8-8v-2H76"/><path class="e" d="M102,82v2c0,4.42-3.58,8-8,8h-10c-4.42,0-8-3.58-8-8v-2h26Z"/><path class="i" d="M113.28,39.59l-6.32,37.59c-.56,2.8-3.02,4.82-5.88,4.82h-6c2.86,0,5.32-2.02,5.88-4.82l6.32-37.59c.37-1.86-1.05-3.59-2.94-3.59h6c1.89,0,3.31,1.73,2.94,3.59Z"/><path class="j" d="M107.28,39.59l-6.32,37.59c-.56,2.8-3.02,4.82-5.88,4.82H27.66c-1.89,0-3.31-1.73-2.94-3.59l6.32-37.59c.56-2.8,3.02-4.82,5.88-4.82H104.34c1.89,0,3.31,1.73,2.94,3.59Z"/><path class="e" d="M104.34,36h6c1.89,0,3.31,1.73,2.94,3.59l-6.32,37.59c-.56,2.8-3.02,4.82-5.88,4.82h-6"/><path class="e" d="M107.28,39.59l-6.32,37.59c-.56,2.8-3.02,4.82-5.88,4.82H27.66c-1.89,0-3.31-1.73-2.94-3.59l6.32-37.59c.56-2.8,3.02-4.82,5.88-4.82H104.34c1.89,0,3.31,1.73,2.94,3.59Z"/><polygon class="k" points="31.32 76 36.92 42 100.68 42 95.08 76 31.32 76"/><polygon class="e" points="31.32 76 36.92 42 100.68 42 95.08 76 31.32 76"/><line class="e" x1="39" y1="84" x2="47" y2="84"/><g><path class="j" d="M77,52l-9.81,6.24c-.71,.46-1.64,.41-2.3-.11l-7.89-6.13h20Z"/><path class="i" d="M77,52l-2,12h-20l2-12,7.89,6.13c.66,.52,1.59,.57,2.3,.11l9.81-6.24Z"/><path class="e" d="M77,52l-2,12h-20l2-12,7.89,6.13c.66,.52,1.59,.57,2.3,.11l9.81-6.24Z"/><line class="h" x1="57" y1="52" x2="77" y2="52"/></g><g><line class="e" x1="64" y1="26" x2="64" y2="22"/><line class="e" x1="72" y1="28" x2="74" y2="24"/><line class="e" x1="56" y1="28" x2="54" y2="24"/></g><line class="e" x1="94" y1="92" x2="108" y2="92"/><line class="e" x1="104" y1="98" x2="98" y2="98"/><rect class="f" y="0" width="128" height="128"/></g></g></g></svg>