<svg xmlns="http://www.w3.org/2000/svg" width="72.203" height="67.755" viewBox="0 0 72.203 67.755">
  <path id="Subtraction_9" data-name="Subtraction 9" d="M33.1,67.755a57.164,57.164,0,0,1-7.609-.464,27.825,27.825,0,0,1-6.36-1.538,17.411,17.411,0,0,1-3.456-1.831,21.6,21.6,0,0,1-2.9-2.388,54.146,54.146,0,0,1-4.858-5.667l-.026-.033-.015-.021c-.225-.289-.459-.588-.689-.881-.463-.593-1.113-1.273-1.8-1.993A28.57,28.57,0,0,1,1.2,47.774,8.736,8.736,0,0,1,.076,44.76a6.011,6.011,0,0,1-.044-1.576,5.874,5.874,0,0,1,.411-1.6A6.137,6.137,0,0,1,1.93,39.486,7.377,7.377,0,0,1,4.1,38.067l.556-.11.167-.034.1-.019c.194-.04.387-.078.581-.116V9.116c0-.567-.016-1.153-.036-1.859v-.02c-.036-1.24-.073-2.523.01-3.68A6.176,6.176,0,0,1,6.2.685L6.4.6,6.591.52,6.669.485,6.791.434l.4-.171h41.88c1.05,0,2.475-.056,3.853-.11h.013C54.628.084,56.737,0,58.718,0A38.041,38.041,0,0,1,62.99.2a13.462,13.462,0,0,1,1.7.3,4.954,4.954,0,0,1,1.248.472,9.95,9.95,0,0,1,.43,2.737c.049,1.024.029,2.127.011,3.192v.058l0,.1c-.009.526-.018,1.022-.018,1.5q.016,3.2.034,6.4v.278q.018,3.337.035,6.674l.023,4.309q.011,2.178.023,4.357v.178q.012,2.255.024,4.509a5.707,5.707,0,0,1,2.023.445,4.591,4.591,0,0,1,1.492,1.058,7.5,7.5,0,0,1,1.7,3.559c.661,2.885.518,6.567.379,10.127l0,.1c-.054,1.4-.1,2.717-.1,3.965,0,.508,0,1.014.008,1.5v.02a33.217,33.217,0,0,1-.244,5.562,8.083,8.083,0,0,1-.676,2.217,4.624,4.624,0,0,1-1.338,1.66,6.371,6.371,0,0,1-2.23,1.06,10.214,10.214,0,0,1-2.666.333,12.314,12.314,0,0,1-4.158-.721,8.346,8.346,0,0,1-1.692-.837,4.679,4.679,0,0,1-1.2-1.1A67.808,67.808,0,0,1,46.8,66.68,93.815,93.815,0,0,1,33.1,67.755ZM5.925,42a2.28,2.28,0,0,0-1.545,1.4c-.435,1.795,2.45,4.855,4.359,6.88.592.628,1.1,1.17,1.4,1.552.4.513.794,1.032,1.21,1.581,2.532,3.342,5.149,6.8,9.05,8.4,2.558,1.049,7.536,1.65,13.657,1.65a70.058,70.058,0,0,0,13.185-1.087L54.8,60.662l1.717-.39V44.111c-.541-.269-1.1-.571-1.682-.891C52.412,41.9,49.667,40.4,46.387,40.4a10.878,10.878,0,0,0-2.658.334L39.3,42.494l-.106.042-4.321,1.716a9.689,9.689,0,0,1-1.721.114c-.9,0-1.942-.051-3.05-.105l-.153-.007c-1.073-.053-2.287-.112-3.383-.112-2.228,0-3.429.258-3.781.813-.562.655-.493,2.3-.438,3.623.006.156.013.307.018.451,1.811-.008,3.72-.087,5.742-.171,2.189-.091,4.452-.185,6.638-.185a37.43,37.43,0,0,1,7.717.638q.42.562.843,1.125V51.98c-.646,1.44-3.448,1.607-5.5,1.607-1.144,0-2.351-.06-3.416-.113-.912-.046-1.773-.089-2.47-.089-.764,0-1.532.006-2.274.012-.722.006-1.468.011-2.187.011-4.449,0-9.028-.186-11.841-2.411a22.43,22.43,0,0,1-2.949-3.306C10.6,45.081,8.252,42.123,5.925,42Zm58.516-2.728c-.451,0-.9.017-1.342.034-.24.009-.468.018-.68.023l-.6.4-.032.021-.632.422c-.4,1.453-.652,6.266-.6,11.443.043,4.446.334,9.571,1.023,10.622a13.38,13.38,0,0,0,3.165.39,4.74,4.74,0,0,0,1.755-.249c1.717-.819,1.471-9.555,1.323-14.775-.032-1.14-.06-2.122-.06-2.793,0-.347.009-.7.017-1.043.045-1.814.087-3.526-1.14-4.156A4.808,4.808,0,0,0,64.441,39.275ZM9.719,17.69V33.149c0,.331-.026.775-.055,1.245l-.006.106,0,.043c-.047.783-.1,1.671-.074,2.447A3.059,3.059,0,0,0,10,38.771q1.733,1.818,3.462,3.641l.628.658.638.672,1.123,1.18q1.151,1.21,2.3,2.42a12.653,12.653,0,0,1,.39-3.574,4.846,4.846,0,0,1,1.174-2.143A4.291,4.291,0,0,1,21.77,40.51a10.927,10.927,0,0,1,2.708-.27c.779,0,1.605.039,2.48.081h.025l.131.008c1.055.05,1.938.088,2.889.088a21.382,21.382,0,0,0,4.309-.383A18.9,18.9,0,0,0,38.85,38.3l.014-.007A20.083,20.083,0,0,1,44.01,36.38a12.774,12.774,0,0,1,6.513.44,31.333,31.333,0,0,1,3.5,1.432l.011,0a29.913,29.913,0,0,0,2.908,1.216,5.562,5.562,0,0,1,.735-1.692,4.869,4.869,0,0,1,1.134-1.2,9.765,9.765,0,0,1,3.33-1.465V17.69H44.572c.01.553.032,1.147.051,1.656.049,1.388.105,2.953.027,4.349a7.565,7.565,0,0,1-.78,3.412,51.25,51.25,0,0,1-9.011.582c-1.793,0-3.365-.057-4.545-.166a5.387,5.387,0,0,1-2.465-.558c-.566-.385-.891-1.4-.993-3.1a42.532,42.532,0,0,1,.074-4.511l0-.037V19.3c.032-.6.062-1.159.074-1.613Zm21.5,0v5.622h9.135V17.69ZM44.572,4.478l.065,4.116.076,4.88H62.139v-9Zm-13.35,0q.024,1.614.05,3.228v.027q.025,1.575.049,3.149l.021,1.325.021,1.267h8.994v-9Zm-21.5,0v9H27.006v-9Z" transform="translate(0)" fill="#fff"/>
</svg>
