<svg xmlns="http://www.w3.org/2000/svg" width="28.032" height="31.147" viewBox="0 0 28.032 31.147">
  <path id="Path_12" data-name="Path 12" d="M47.714,10.223,37.555.853a3.278,3.278,0,0,0-4.411,0l-10.159,9.37a5.594,5.594,0,0,0-1.651,3.758V28.036a3.117,3.117,0,0,0,3.115,3.111h7.421v-7.2H38.9v7.2h7.35a3.114,3.114,0,0,0,3.12-3.111V13.981A5.588,5.588,0,0,0,47.714,10.223Zm-1.469,17.81h1.469l-.839-15.52L35.255,2.327l-9.552,9.2c-4.17,0-1.256,16.513-1.256,16.514V13.981a2.574,2.574,0,0,1,.648-1.469l10.159-9.37a.173.173,0,0,1,.188,0L45.6,12.512a2.566,2.566,0,0,1,.648,1.469Q46.25,28.032,46.246,28.032Z" transform="translate(-21.333 0)" fill="#01bbe4"/>
</svg>
