<svg xmlns="http://www.w3.org/2000/svg" width="23.86" height="23.86" viewBox="0 0 23.86 23.86">
  <g id="icons8-info" transform="translate(-7.9 -7.9)">
    <path id="Path_394481" data-name="Path 394481" d="M31.76,19.83A11.93,11.93,0,1,0,19.83,31.76,11.932,11.932,0,0,0,31.76,19.83Z" transform="translate(0 0)" fill="#25b7d3"/>
    <path id="Path_394482" data-name="Path 394482" d="M189.27,90.969a.241.241,0,0,0-.3-.082,28.687,28.687,0,0,1-2.789,1.2.109.109,0,0,1-.029-.034.326.326,0,0,1-.053-.192,35.549,35.549,0,0,1,1.5-6.044,20.881,20.881,0,0,0,.938-3.582.907.907,0,0,0-.332-.726,1.311,1.311,0,0,0-.851-.255,4.413,4.413,0,0,0-2.121.7,11.321,11.321,0,0,0-2.664,2.284.239.239,0,0,0-.019.3.247.247,0,0,0,.289.087c.337-.139,2.039-.837,2.289-.991a1.067,1.067,0,0,1,.524-.192h.014c0,.01,0,.024,0,.043a1.711,1.711,0,0,1-.091.515c-1.447,4.693-2.154,7.574-2.154,8.8a1.467,1.467,0,0,0,.356,1.034,1.261,1.261,0,0,0,.967.39,3.362,3.362,0,0,0,1.592-.548,18.843,18.843,0,0,0,2.9-2.39A.248.248,0,0,0,189.27,90.969Zm-.048-13.6a1.214,1.214,0,0,0-.9-.365,1.536,1.536,0,0,0-1.164.529,1.791,1.791,0,0,0-.476,1.255,1.344,1.344,0,0,0,.351.952,1.173,1.173,0,0,0,.89.375,1.527,1.527,0,0,0,1.154-.558,1.834,1.834,0,0,0,.5-1.269A1.262,1.262,0,0,0,189.222,77.365Z" transform="translate(-166.208 -65.777)" fill="#fff"/>
  </g>
</svg>
