<svg xmlns="http://www.w3.org/2000/svg" width="24" height="22" viewBox="0 0 24 22">
  <g id="Group" transform="translate(0 -0.003)">
    <path id="Path_394475" data-name="Path 394475" d="M10.3.068a2.608,2.608,0,0,1,1.714,2.039,8.146,8.146,0,0,1,0,1.927.7.7,0,0,1-1.31.146c-.106-.189-.106-.189-.124-.925-.021-.8-.057-.955-.255-1.179s-.205-.228-2.16-.224H6.355l.195.09a1.669,1.669,0,0,1,.864.977l.11.284.011,7.111.007,7.111,1.271-.013,1.271-.013.156-.129a1.249,1.249,0,0,0,.241-.323c.089-.189.089-.215.106-1.377.018-1.286.025-1.312.237-1.557A.682.682,0,0,1,12,14.29a4.313,4.313,0,0,1,.067,1.377,4.434,4.434,0,0,1-.241,2.1,2.686,2.686,0,0,1-1,1.2c-.474.284-.616.305-2.046.305H7.541v.615a4.107,4.107,0,0,1-.053.83,1.971,1.971,0,0,1-.549.938,1.17,1.17,0,0,1-.9.348H5.717l-2.372-.964C2.039,20.51.9,20.028.8,19.973a1.927,1.927,0,0,1-.6-.7c-.212-.447-.2.09-.2-9.15,0-6.014.011-8.5.039-8.668A1.724,1.724,0,0,1,1.239.042C1.359.017,2.981,0,5.749,0,9.307,0,10.114.017,10.3.068Z" transform="translate(0)" fill="#01bbe4"/>
    <path id="Path_394476" data-name="Path 394476" d="M13.827,3.811a.9.9,0,0,1,.393.4,6.464,6.464,0,0,1,.05,1.335V6.767l1.639.011,1.639.011.149.1a.753.753,0,0,1-.011,1.282l-.17.106-1.625.011L14.269,8.3V9.507c0,1.094-.007,1.225-.067,1.352a.763.763,0,0,1-1.023.357c-.053-.028-.832-.789-1.728-1.692-1.54-1.547-1.636-1.65-1.675-1.809a.729.729,0,0,1,.085-.574c.127-.216,3.193-3.261,3.353-3.324A.98.98,0,0,1,13.827,3.811Z" transform="translate(5.95 1.422)" fill="#01bbe4"/>
  </g>
</svg>
