<svg xmlns="http://www.w3.org/2000/svg" xmlns:xlink="http://www.w3.org/1999/xlink" width="13" height="12" viewBox="0 0 13 12">
  <defs>
    <clipPath id="clip-path">
      <rect id="Rectangle_51916" data-name="Rectangle 51916" width="13" height="12" transform="translate(0.813 0.811)" fill="#fff"/>
    </clipPath>
  </defs>
  <g id="pencil_1_1" data-name="pencil(1) 1" transform="translate(-0.813 -0.811)" clip-path="url(#clip-path)">
    <path id="Path_394479" data-name="Path 394479" d="M11.2.856c-.308.094-.4.15-.992.7l-.572.526,1.388,1.284,1.388,1.284.537-.493c.572-.526.7-.682.788-.926a1.193,1.193,0,0,0,.066-.5,1.211,1.211,0,0,0-.149-.487c-.1-.188-.133-.228-.653-.713-.585-.541-.686-.609-1.02-.69A2.015,2.015,0,0,0,11.2.856Z" fill="#fff"/>
    <path id="Path_394480" data-name="Path 394480" d="M5.235,6.153,1.621,9.5l-.413,1.528a13.127,13.127,0,0,0-.393,1.593.294.294,0,0,0,.077.121.327.327,0,0,0,.128.075c.068.017,3.239-.7,3.367-.757.035-.017,1.68-1.525,3.656-3.352l3.589-3.326L10.244,4.092,8.855,2.809Z" fill="#fff"/>
  </g>
</svg>
