<svg xmlns="http://www.w3.org/2000/svg" width="23.074" height="26.393" viewBox="0 0 23.074 26.393">
  <g id="noun_group_1892790" transform="translate(0)" opacity="0.995">
    <path id="Path_28" data-name="Path 28" d="M28.344,32.234v1.8a1.5,1.5,0,0,1-1.51,1.5H6.78a1.5,1.5,0,0,1-1.51-1.5v-1.8c0-3.164,2.918-6.041,6.77-7.4A1.808,1.808,0,0,0,13.211,23.1,7.417,7.417,0,0,1,18.255,9.3a7.315,7.315,0,0,1,5.815,5.753A7.438,7.438,0,0,1,20.4,23.091a1.788,1.788,0,0,0,1.2,1.757c3.822,1.346,6.739,4.222,6.739,7.387Z" transform="translate(-5.27 -9.139)" fill="#cfd7ed"/>
  </g>
</svg>
