<svg xmlns="http://www.w3.org/2000/svg" width="37.048" height="36.894" viewBox="0 0 37.048 36.894">
  <path id="Subtraction_3" data-name="Subtraction 3" d="M26.495,35.894a1.479,1.479,0,0,1-.319-.033l-4.508-1.49-.423-.14-3.333-1.1-4.664,1.6L9.926,35.861a1.5,1.5,0,0,1-.317.032,2.71,2.71,0,0,1-.893-.179c-.3-.1-.593-.243-.853-.364-.218-.1-.425-.2-.6-.26-.757-.267-1.585-.5-2.385-.721A18.544,18.544,0,0,1,.4,32.709c-.545-1.765-.413-4.8-.3-7.478.045-1.028.087-2,.087-2.818,0-.255-.005-.515-.011-.79-.012-.59-.024-1.2.018-1.749a3.251,3.251,0,0,1,.343-1.383l1.87-.634.354-.12L8.6,15.759c0-.507-.025-1.269-.05-2.152h0c-.05-1.757-.118-4.163-.089-6.22.016-1.12.06-2.044.13-2.746a4.614,4.614,0,0,1,.359-1.628l3.986-1.36L17.771,0a9.192,9.192,0,0,1,1.978.39c.825.225,1.834.54,2.917.91,1,.342,2.014.714,2.851,1.048a14.225,14.225,0,0,1,1.78.8c.516,1.727.4,4.622.289,7.176-.041.98-.079,1.906-.079,2.7l.04,1.607.03,1.2a31.12,31.12,0,0,1,4.2,1.181,23.93,23.93,0,0,1,3.92,1.62c.545,1.765.413,4.8.3,7.478-.045,1.028-.087,2-.087,2.818,0,.254.005.515.011.79.012.59.024,1.2-.018,1.749a3.25,3.25,0,0,1-.343,1.383L28.837,35.09c-.174.061-.382.158-.6.261-.26.122-.554.259-.851.364A2.7,2.7,0,0,1,26.495,35.894ZM33.67,20.8h0l-6.164,2.1V33.339h.07l2.826-.952.333-.112,3.075-1.036v-7.7c0-.174.014-.408.029-.657.023-.387.049-.826.036-1.209a1.481,1.481,0,0,0-.2-.866ZM19.1,20.8h0V31.238l2.646.892.405.137.482.162,2.7.91h.07q-.016-2.457-.033-4.915l0-.338,0-.7q-.015-2.278-.03-4.555l-1.881-.613-2.468-.8L19.1,20.8Zm-2.241,0h0L10.7,22.9V33.339h.07l3.16-1.065.517-.174L17,31.238v-7.7c0-.174.014-.408.029-.656.023-.388.049-.826.036-1.21a1.481,1.481,0,0,0-.2-.866Zm-14.568,0h0V31.238l3.083,1.039.33.111,2.821.951H8.6q-.017-2.554-.034-5.108l-.006-.853q-.015-2.272-.03-4.544l-2.471-.805-1.886-.615L2.292,20.8ZM26.316,17.65h0l-1.488.518-3.344,1.163v.07l1.145.382,3.687,1.229,2.957-.972.449-.148,1.707-.561-3.94-1.3-1.173-.386Zm-16.81,0-1.6.557L4.673,19.331v.07l1.038.346.35.117,3.445,1.148,2.874-.945.508-.167,1.73-.569-3.906-1.284L10.58,18ZM10.7,5.323h0V15.759l6.234,2.1H17V7.424l-2.036-.679-1.253-.418-.754-.251L10.7,5.323Zm14.568,0h0L22.022,6.429l-2.92,1V17.86h.07l6.234-2.1v-7.7c0-.174.014-.408.029-.657h0c.023-.387.049-.825.036-1.208a1.481,1.481,0,0,0-.2-.866ZM17.911,2.171h0l-3.8,1.321-1.034.36v.07l1.962.654,2.871.957L19.2,5.111l.31-.1,3.518-1.157-1.941-.638L20.9,3.155l-2.991-.983Z" transform="translate(0.473 0.5)" fill="#cfd7ed" stroke="rgba(0,0,0,0)" stroke-miterlimit="10" stroke-width="1"/>
</svg>
