<svg xmlns="http://www.w3.org/2000/svg" width="75.063" height="74.746" viewBox="0 0 75.063 74.746">
  <path id="Subtraction_3" data-name="Subtraction 3" d="M54.434,73.745a3.039,3.039,0,0,1-.656-.069l-9.263-3.061-.869-.287L36.8,68.065l-9.581,3.278-6.823,2.334a3.085,3.085,0,0,1-.651.067,5.567,5.567,0,0,1-1.835-.367c-.611-.216-1.218-.5-1.752-.749-.449-.21-.873-.408-1.23-.534-1.556-.549-3.256-1.023-4.9-1.481A38.1,38.1,0,0,1,.823,67.2C-.3,63.576-.026,57.339.213,51.837c.092-2.112.178-4.106.178-5.789,0-.523-.011-1.057-.022-1.623C.345,43.213.32,41.959.406,40.832a6.679,6.679,0,0,1,.7-2.842l3.842-1.3.727-.246,11.98-4.063c-.007-1.042-.052-2.608-.1-4.422v0c-.1-3.61-.243-8.554-.182-12.78.033-2.3.123-4.2.268-5.641a9.48,9.48,0,0,1,.738-3.344l8.189-2.795L36.51,0a18.884,18.884,0,0,1,4.064.8c1.7.463,3.768,1.109,5.993,1.869,2.059.7,4.139,1.468,5.857,2.152A29.226,29.226,0,0,1,56.08,6.476c1.061,3.547.813,9.5.595,14.743-.084,2.014-.163,3.916-.163,5.547l.083,3.3.061,2.455a63.936,63.936,0,0,1,8.638,2.427,49.165,49.165,0,0,1,8.054,3.329c1.12,3.626.849,9.862.61,15.364-.092,2.112-.178,4.106-.178,5.789,0,.522.011,1.057.022,1.624.024,1.212.049,2.465-.037,3.593a6.678,6.678,0,0,1-.7,2.842l-13.814,4.6c-.358.126-.786.325-1.238.537-.534.25-1.139.533-1.748.748A5.537,5.537,0,0,1,54.434,73.745ZM69.175,42.738h0L56.512,47.055V68.5h.144l5.805-1.957.684-.231,6.317-2.129V48.35c0-.357.029-.839.059-1.349.048-.8.1-1.7.073-2.484a3.043,3.043,0,0,0-.42-1.779Zm-29.931,0h0V64.179l5.435,1.832.832.281.99.334L52.051,68.5H52.2q-.034-5.048-.067-10.1l0-.7-.01-1.433q-.031-4.68-.062-9.359l-3.864-1.259L43.118,44l-3.874-1.262Zm-4.6,0h0L21.976,47.055V68.5h.144l6.491-2.188,1.062-.358,5.254-1.771V48.35c0-.357.029-.838.059-1.348.048-.8.1-1.7.073-2.485a3.043,3.043,0,0,0-.42-1.779Zm-29.931,0h0V64.179l6.334,2.135.678.228,5.8,1.953h.144q-.035-5.247-.07-10.5l-.012-1.753q-.031-4.669-.062-9.337l-5.076-1.654L8.564,43.995,4.708,42.738Zm49.358-6.475h0l-3.058,1.064-6.871,2.39v.144l2.353.784,7.576,2.525,6.074-2,.923-.3,3.507-1.153-8.095-2.661-2.41-.792Zm-34.536,0-3.29,1.144L9.6,39.716v.144l2.133.711.72.24L19.53,43.17l5.905-1.941,1.045-.343,3.555-1.169L22.01,37.078l-.272-.089Zm2.446-25.326h0V32.377l12.807,4.317h.144V15.254l-4.183-1.394L28.17,13l-1.549-.516-4.645-1.548Zm29.931,0h0l-6.663,2.272-6,2.045V36.694h.144L52.2,32.377V16.549c0-.358.029-.839.059-1.349h0c.047-.795.1-1.7.073-2.483a3.043,3.043,0,0,0-.42-1.779ZM36.8,4.461h0L28.992,7.176l-2.123.739v.144L30.9,9.4l5.9,1.966,2.639-.868.638-.21L47.3,7.915,43.314,6.6l-.371-.122L36.8,4.461Z" transform="translate(0.446 0.5)" fill="#fff" stroke="rgba(0,0,0,0)" stroke-miterlimit="10" stroke-width="1"/>
</svg>
