<svg id="Group_30" data-name="Group 30" xmlns="http://www.w3.org/2000/svg" width="21.483" height="24" viewBox="0 0 21.483 24">
  <path id="Path_394473" data-name="Path 394473" d="M9.893,0A6.232,6.232,0,0,0,3.557,6.087a6.232,6.232,0,0,0,6.336,6.087,6.232,6.232,0,0,0,6.336-6.087A6.232,6.232,0,0,0,9.893,0Z" transform="translate(0.85)" fill="#01bbe4"/>
  <path id="Path_394474" data-name="Path 394474" d="M21.437,14.605a5.632,5.632,0,0,0-.626-1.116,7.769,7.769,0,0,0-5.36-3.3,1.168,1.168,0,0,0-.789.186,6.77,6.77,0,0,1-7.837,0,1.04,1.04,0,0,0-.789-.186,7.712,7.712,0,0,0-5.36,3.3,6.5,6.5,0,0,0-.626,1.116.554.554,0,0,0,.027.505,10.608,10.608,0,0,0,.735,1.063,10.187,10.187,0,0,0,1.252,1.382,16.216,16.216,0,0,0,1.252,1.063,12.646,12.646,0,0,0,14.8,0,11.885,11.885,0,0,0,1.252-1.063,12.394,12.394,0,0,0,1.252-1.382,9.314,9.314,0,0,0,.735-1.063A.446.446,0,0,0,21.437,14.605Z" transform="translate(0 2.989)" fill="#01bbe4"/>
</svg>
