<svg xmlns="http://www.w3.org/2000/svg" width="21.483" height="24.137" viewBox="0 0 21.483 24.137">
  <g id="Group_1_" data-name="Group (1)" transform="translate(-0.1)">
    <path id="Path_394477" data-name="Path 394477" d="M17.654,13.075A5.249,5.249,0,0,1,13.4,15.243H10.957a1.956,1.956,0,0,1-1.838-1.288,6.211,6.211,0,0,1-.989-.391A6.658,6.658,0,0,1,6.283,12.2,7.885,7.885,0,0,0,.1,19.895v.493a1.227,1.227,0,0,0,1.227,1.227h19.03a1.227,1.227,0,0,0,1.227-1.227v-.493A7.879,7.879,0,0,0,17.654,13.075Z" transform="translate(0 2.523)" fill="#01bbe4"/>
    <path id="Path_394478" data-name="Path 394478" d="M4.382,12.192a1.4,1.4,0,0,0,1.224-.723l.019.051.006.015A5.451,5.451,0,0,0,8.7,14.771a1.953,1.953,0,0,1,1.656-.916h2.448a1.372,1.372,0,0,0,.671-.18,2.768,2.768,0,0,0,.791-.913,7.065,7.065,0,0,0,.612-1.294,1.4,1.4,0,0,0,.386.445v.6a2.463,2.463,0,0,1-2.46,2.46H10.36a.838.838,0,1,0,0,1.676h2.448a4.14,4.14,0,0,0,4.136-4.136v-.6A1.394,1.394,0,0,0,17.5,10.8V7.3a1.394,1.394,0,0,0-.58-1.133,6.7,6.7,0,0,0-13.357,0A1.394,1.394,0,0,0,2.986,7.3v3.5A1.4,1.4,0,0,0,4.382,12.192ZM10.244,1.676a5.031,5.031,0,0,1,5,4.526,1.4,1.4,0,0,0-.393.485,5.085,5.085,0,0,0-4.606-3.5,5.089,5.089,0,0,0-4.6,3.491l0,.008A1.4,1.4,0,0,0,5.245,6.2,5.031,5.031,0,0,1,10.244,1.676Z" transform="translate(0.597)" fill="#01bbe4"/>
  </g>
</svg>
